<svg xmlns="http://www.w3.org/2000/svg" width="350" height="350" viewBox="0 0 718 718" fill="none">
    <g id="Frame 1">
        <rect width="705" height="718" fill="transparent"/>
        <g id="bicycle">
            <g id="wheel2">
                <g id="g490">
                    <path id="path492" d="M548.867 632.216L547.147 632.541L511.236 425.625L512.949 425.29L548.867 632.216Z" fill="#521B19"/>
                </g>
                <g id="g494">
                    <path id="path496" d="M565.754 627.251L564.11 627.874L494.344 430.612L495.984 429.974L565.754 627.251Z" fill="#521B19"/>
                </g>
                <g id="g498">
                    <path id="path500" d="M581.536 619.272L580.048 620.184L478.539 438.579L480.039 437.648L581.536 619.272Z" fill="#521B19"/>
                </g>
                <g id="g502">
                    <path id="path504" d="M595.778 608.539L594.457 609.727L464.333 449.305L465.636 448.11L595.778 608.539Z" fill="#521B19"/>
                </g>
                <g id="g506">
                    <path id="path508" d="M608.01 595.433L606.902 596.821L452.084 462.423L453.176 461.025L608.01 595.433Z" fill="#521B19"/>
                </g>
                <g id="g510">
                    <path id="path512" d="M617.885 580.275L617.021 581.842L442.209 477.575L443.064 476.002L617.885 580.275Z" fill="#521B19"/>
                </g>
                <g id="g514">
                    <path id="path516" d="M625.073 563.543L624.494 565.251L435.003 494.296L435.595 492.589L625.073 563.543Z" fill="#521B19"/>
                </g>
                <g id="g518">
                    <path id="path520" d="M629.382 545.78L629.108 547.564L430.7 512.065L430.984 510.269L629.382 545.78Z" fill="#521B19"/>
                </g>
                <g id="g522">
                    <path id="path524" d="M630.682 527.515L630.696 529.31L429.412 530.341L429.394 528.521L630.682 527.515Z" fill="#521B19"/>
                </g>
                <g id="g526">
                    <path id="path528" d="M628.907 509.264L629.227 511.057L431.168 548.569L430.854 546.787L628.907 509.264Z" fill="#521B19"/>
                </g>
                <g id="g530">
                    <path id="path532" d="M624.153 491.625L624.743 493.328L435.944 566.227L435.317 564.509L624.153 491.625Z" fill="#521B19"/>
                </g>
                <g id="g534">
                    <path id="path536" d="M616.515 475.128L617.42 476.677L443.564 582.731L442.683 581.165L616.515 475.128Z" fill="#521B19"/>
                </g>
                <g id="g538">
                    <path id="path540" d="M606.257 460.264L607.396 461.636L453.829 597.587L452.685 596.22L606.257 460.264Z" fill="#521B19"/>
                </g>
                <g id="g542">
                    <path id="path544" d="M593.683 447.489L595.034 448.628L466.38 610.369L465.047 609.214L593.683 447.489Z" fill="#521B19"/>
                </g>
                <g id="g546">
                    <path id="path548" d="M579.196 437.176L580.7 438.056L480.895 620.68L479.376 619.789L579.196 437.176Z" fill="#521B19"/>
                </g>
                <g id="g550">
                    <path id="path552" d="M563.192 429.651L564.834 430.25L496.894 628.191L495.258 627.606L563.192 429.651Z" fill="#521B19"/>
                </g>
                <g id="g554">
                    <path id="path556" d="M546.199 425.141L547.895 425.433L513.899 632.704L512.185 632.404L546.199 425.141Z" fill="#521B19"/>
                </g>
                <g id="g486">
                    <path id="path488" d="M531.408 634.05L529.667 634.074L528.683 423.764L530.434 423.761L531.408 634.05Z" fill="#521B19"/>
                </g>
                <g id="g670">
                    <circle id="Ellipse 1" cx="529" cy="527" r="102.5" stroke="black" stroke-width="11"/>
                </g>
            </g>
            <g id="wheel1">
                <g id="g558">
                    <path id="path560" d="M166.998 637.13L165.247 637.144L164.275 426.838L166.018 426.834L166.998 637.13Z" fill="#521B19"/>
                </g>
                <g id="g562">
                    <path id="path564" d="M184.456 635.283L182.74 635.615L146.812 428.703L148.548 428.37L184.456 635.283Z" fill="#521B19"/>
                </g>
                <g id="g566">
                    <path id="path568" d="M201.335 630.292L199.716 630.947L129.932 433.681L131.563 433.06L201.335 630.292Z" fill="#521B19"/>
                </g>
                <g id="g570">
                    <path id="path572" d="M217.138 622.338L215.642 623.252L114.137 441.647L115.638 440.734L217.138 622.338Z" fill="#521B19"/>
                </g>
                <g id="g574">
                    <path id="path576" d="M231.37 611.62L230.046 612.815L99.9167 452.364L101.23 451.177L231.37 611.62Z" fill="#521B19"/>
                </g>
                <g id="g578">
                    <path id="path580" d="M243.601 598.488L242.498 599.884L87.6665 465.504L88.7785 464.12L243.601 598.488Z" fill="#521B19"/>
                </g>
                <g id="g582">
                    <path id="path584" d="M253.482 583.349L252.63 584.899L77.782 480.651L78.662 479.056L253.482 583.349Z" fill="#521B19"/>
                </g>
                <g id="g586">
                    <path id="path588" d="M260.668 566.616L260.089 568.334L70.6035 497.37L71.1942 495.653L260.668 566.616Z" fill="#521B19"/>
                </g>
                <g id="g590">
                    <path id="path592" d="M264.983 548.845L264.695 550.647L66.278 515.134L66.5793 513.319L264.983 548.845Z" fill="#521B19"/>
                </g>
                <g id="g594">
                    <path id="path596" d="M266.281 530.574L266.294 532.37L64.9942 533.406L64.9889 531.594L266.281 530.574Z" fill="#521B19"/>
                </g>
                <g id="g598">
                    <path id="path600" d="M264.507 512.35L264.835 514.125L66.7541 551.662L66.4354 549.85L264.507 512.35Z" fill="#521B19"/>
                </g>
                <g id="g602">
                    <path id="path604" d="M259.742 494.698L260.349 496.396L71.5339 569.295L70.9299 567.579L259.742 494.698Z" fill="#521B19"/>
                </g>
                <g id="g606">
                    <path id="path608" d="M252.11 478.189L253.008 479.762L79.1569 585.782L78.2716 584.243L252.11 478.189Z" fill="#521B19"/>
                </g>
                <g id="g610">
                    <path id="path612" d="M241.846 463.33L242.995 464.71L89.4166 600.65L88.2712 599.291L241.846 463.33Z" fill="#521B19"/>
                </g>
                <g id="g614">
                    <path id="path616" d="M229.293 450.544L230.621 451.696L102.003 613.441L100.63 612.291L229.293 450.544Z" fill="#521B19"/>
                </g>
                <g id="g618">
                    <path id="path620" d="M214.797 440.247L216.297 441.116L116.492 623.74L114.977 622.858L214.797 440.247Z" fill="#521B19"/>
                </g>
                <g id="g622">
                    <path id="path624" d="M198.791 432.72L200.434 433.318L132.489 631.273L130.857 630.68L198.791 432.72Z" fill="#521B19"/>
                </g>
                <g id="g626">
                    <path id="path628" d="M181.78 428.212L183.49 428.52L149.496 635.791L147.777 635.485L181.78 428.212Z" fill="#521B19"/>
                </g>
                <circle id="Ellipse 1_2" cx="164" cy="533" r="102.5" stroke="black" stroke-width="11"/>
            </g>
            <g id="manCycle">
                <g id="backBody">
                    <g id="g466">
                        <path id="path468" d="M336.246 461.101L334.446 466.898L328.997 468.456L322.202 464.505L322.331 458.113L322.797 456.615L336.246 461.101Z" fill="white"/>
                    </g>
                    <g id="g470">
                        <path id="path472" d="M313.641 474.894L366.406 492.49C366.406 492.49 368.539 484.798 366.398 481.822C364.261 478.841 339.651 464.144 337.033 462.706C334.417 461.265 334.074 467.283 328.325 465.365C322.574 463.447 322.851 458.5 321.707 456.374C320.602 454.302 312.7 468.466 313.641 474.894Z" fill="#4C5763"/>
                    </g>
                    <g id="g474">
                        <path id="path476" d="M365.695 494.784L312.928 477.188L313.641 474.894L366.406 492.489L365.695 494.784Z" fill="#B8825F"/>
                    </g>
                    <g id="g478">
                        <path id="path480" d="M312.312 332.073L363.77 349.821L333.547 400.583L278.284 372.867L296.561 332.621L298.943 319.916L312.312 332.073Z" fill="#222222"/>
                    </g>
                    <g id="g482">
                        <path id="path484" d="M339.717 390.218L349.824 391.888L329.149 454.188C329.149 454.188 334.561 461.41 343.093 457.83C343.093 457.83 390.641 392.036 388.575 377.072C386.511 362.107 360.563 355.209 360.563 355.209L339.717 390.218Z" fill="#D6877C"/>
                    </g>
                </g>
                <g id="cycleBody">
                    <g id="g630">
                        <path id="path632" d="M276.184 417.638C200.3 429.593 151.491 529.633 149.255 533.25L170.878 542.588C171.383 541.766 214.27 445.833 280.344 428.462C349.126 410.376 478.896 400.28 480.136 400.224L471.188 388.644C465.922 388.844 348.355 406.288 276.184 417.638Z" fill="#F8DDB6"/>
                    </g>
                    <g id="g634">
                        <path id="path636" d="M332.162 546.732L320.405 536.372L465.533 396.427L477.31 406.776L332.162 546.732Z" fill="#F8DDB6"/>
                    </g>
                    <g id="g638">
                        <path id="path640" d="M452.726 365.59C464.516 395.519 525.522 535.982 526.134 537.405L539.102 532.631C538.462 531.21 477.552 390.917 465.857 361.215C456.48 337.466 487.793 326.103 489.129 325.639L484.189 313.601C468.389 319.097 441.473 337.034 452.726 365.59Z" fill="#F8DDB6"/>
                    </g>
                    <g id="g646">
                        <path id="path648" d="M266.366 356.852L277.887 354.469L316.169 511.873L304.643 514.234L266.366 356.852Z" fill="#F8DDB6"/>
                    </g>
                    <g id="g650">
                        <path id="path652" d="M318.147 540.39L316.595 551.148L158.723 531.868L160.267 521.075L318.147 540.39Z" fill="#F8DDB6"/>
                    </g>
                    <g id="g654">
                        <path id="path656" d="M322.223 543.031L321.808 546.016L163.939 526.708L164.36 523.743L322.223 543.031Z" fill="#521B19"/>
                    </g>
                    <g id="g658">
                        <path id="path660" d="M277.888 354.469L266.366 356.852L276.026 396.633C280.025 397.381 284.21 398.002 288.546 398.377L277.888 354.469Z" fill="#A2897B"/>
                    </g>
                    <g id="g674">
                        <path id="path676" d="M319.767 566.36C304.166 566.43 291.442 554.832 291.362 540.444C291.292 526.07 303.895 514.37 319.5 514.294C335.102 514.23 347.819 525.82 347.888 540.19C347.97 554.58 335.379 566.285 319.767 566.36ZM319.444 504.504C297.96 504.596 280.632 520.724 280.738 540.493C280.835 560.304 298.34 576.25 319.823 576.156C341.308 576.057 358.64 559.96 358.551 540.145C358.44 520.37 340.935 504.413 319.444 504.504Z" fill="#521B19"/>
                    </g>
                    <g id="g678">
                        <path id="path680" d="M247.796 350.506C247.796 350.506 238.958 385.098 277.787 370.839C316.61 356.585 318.044 364.263 331.923 362.29C345.818 360.305 327.692 348.207 312.4 347.661C297.114 347.081 256.095 343.425 247.796 350.506Z" fill="#070707"/>
                    </g>
                    <g id="g682">
                        <path id="path684" d="M334.707 540.571C334.749 547.697 328.512 553.487 320.791 553.521C313.061 553.551 306.777 547.819 306.739 540.702C306.699 533.598 312.92 527.795 320.651 527.77C328.375 527.734 334.669 533.471 334.707 540.571Z" fill="#521B19"/>
                    </g>
                    <g id="g686">
                        <path id="path688" d="M165.379 514.857L165.779 519.593C166.64 519.508 251.758 513.476 310.696 509.922L310.339 505.206C251.383 508.746 166.232 514.804 165.379 514.857Z" fill="#521B19"/>
                    </g>
                    <g id="g690">
                        <path id="path692" d="M165.739 544.238C166.576 544.43 250.014 561.084 307.56 573.245L308.708 568.609C251.132 556.453 167.671 539.784 166.828 539.621L165.739 544.238Z" fill="#521B19"/>
                    </g>
                    <g id="padel2">
                        <g id="g642">
                            <path id="path644" d="M309.35 593.478L302.583 592.068L317.567 538.658L324.339 540.066L309.35 593.478Z" fill="#521B19"/>
                        </g>
                        <g id="g694">
                            <path id="path696" d="M291.104 591.021C291.921 587.726 294.41 585.466 296.634 585.963L314.077 589.733C316.292 590.231 317.447 593.268 316.632 596.527C315.82 599.791 313.329 602.064 311.107 601.563L293.678 597.792C291.44 597.303 290.293 594.262 291.104 591.021Z" fill="#521B19"/>
                        </g>
                    </g>
                    <g id="g698">
                        <path id="path700" d="M185.15 530.405C185.202 540.463 176.366 548.661 165.454 548.718C154.503 548.762 145.594 540.634 145.545 530.577C145.49 520.499 154.31 512.307 165.254 512.255C176.175 512.206 185.107 520.323 185.15 530.405Z" fill="#521B19"/>
                    </g>
                    <g id="g702">
                        <path id="path704" d="M549.514 530.836C549.567 540.886 540.746 549.112 529.834 549.16C518.871 549.202 509.966 541.062 509.914 531.022C509.86 520.933 518.678 512.729 529.636 512.688C540.551 512.636 549.458 520.758 549.514 530.836Z" fill="#521B19"/>
                    </g>
                    <g id="g706">
                        <path id="path708" d="M516.576 531.577C516.612 538.511 522.73 544.1 530.266 544.064C537.816 544.031 543.884 538.373 543.854 531.452C543.814 524.511 537.687 518.907 530.138 518.936C522.606 518.971 516.536 524.632 516.576 531.577Z" fill="#A2897B"/>
                    </g>
                    <g id="g710">
                        <path id="path712" d="M151.952 530.545C151.993 537.46 158.125 543.073 165.643 543.04C173.2 542.99 179.252 537.341 179.229 530.418C179.184 523.489 173.072 517.874 165.511 517.909C157.989 517.945 151.912 523.602 151.952 530.545Z" fill="#A2897B"/>
                    </g>
                    <g id="g714">
                        <path id="path716" d="M313.55 541.273C313.567 544.937 316.818 547.924 320.815 547.904C324.815 547.886 328.05 544.872 328.026 541.206C328.01 537.521 324.743 534.536 320.742 534.562C316.748 534.578 313.526 537.588 313.55 541.273Z" fill="#A2897B"/>
                    </g>
                    <g id="g718">
                        <path id="path720" d="M504.225 328.433C502.138 331.404 497.835 332.265 494.602 330.345L469.498 315.436C466.278 313.516 465.351 309.571 467.426 306.609C469.498 303.628 473.801 302.769 477.022 304.689L502.141 319.589C505.361 321.517 506.278 325.457 504.225 328.433Z" fill="#070707"/>
                    </g>
                    <g id="padel">
                        <g id="g666">
                            <path id="path668" d="M334.142 489.487L342 491.5L325.629 540.633L317.774 538.636L334.142 489.487Z" fill="#521B19"/>
                        </g>
                        <g id="g722">
                            <path id="path724" d="M327.364 486.428C328.503 483.087 331.412 481.047 333.845 481.884L352.899 488.382C355.345 489.219 356.394 492.613 355.246 495.958C354.119 499.302 351.215 501.323 348.756 500.505L329.718 494C327.271 493.17 326.214 489.781 327.364 486.428Z" fill="#521B19"/>
                        </g>
                    </g>
                </g>
                <g id="frontBody">
                    <g id="frontLeg">
                        <g id="g726">
                            <path id="path728" d="M242.437 300.897C242.437 300.897 222.427 322.679 225.934 348.481C229.439 374.288 269.09 428.822 269.09 428.822L329.983 413.913C329.983 413.913 297.63 354.918 301.271 326.902L242.437 300.897Z" fill="#363636"/>
                        </g>
                        <g id="g730">
                            <path id="path732" d="M275.743 427.195C275.743 427.195 299.391 470.394 302.216 478.043C302.216 478.043 288.084 512.619 282.965 561.216L297.141 564.497C297.141 564.497 331.592 506.645 333.283 477.827C334.978 449.008 316.848 417.13 316.848 417.13L275.743 427.195Z" fill="#E6978A"/>
                        </g>
                        <g id="g734">
                            <path id="path736" d="M297.141 564.497L295.769 570.423L290.432 572.479L283.342 569.19L282.998 562.836L283.352 561.304L297.141 564.497Z" fill="white"/>
                        </g>
                        <g id="g738">
                            <path id="path740" d="M275.546 580.307L329.647 592.829C329.647 592.829 331.209 584.993 328.847 582.237C326.487 579.485 300.773 567.198 298.044 566.016C295.322 564.833 295.427 570.835 289.532 569.471C283.634 568.106 283.545 563.169 282.244 561.163C280.983 559.214 274.127 574.013 275.546 580.307Z" fill="#4C5763"/>
                        </g>
                        <path id="path742" d="M329.106 595.171L275.004 582.648L275.546 580.306L329.648 592.829L329.106 595.171Z" fill="#B8825F"/>
                    </g>
                </g>
                <g id="g744">
                    <path id="path746" d="M463.794 107.785C458.843 110.543 448.219 109.891 448.219 109.891C452.261 105.973 458.433 105.249 458.433 105.249C450.158 100.071 443.607 102.801 441.997 103.63C444.706 101.766 449.277 90.7114 449.277 90.7114C445.863 96.386 433.205 96.954 433.205 96.954C435.238 95.7314 435.113 89.8407 435.113 89.8407C430.645 94.3127 422.01 93.4714 416.449 92.3127L411.942 101.838L434.574 112.545L432.411 117.109C437.125 117.266 440.418 117.133 440.418 117.133C457.973 124.709 463.794 107.785 463.794 107.785Z" fill="#30252A"/>
                </g>
                <g id="g748">
                    <path id="path750" d="M360.936 173.988C360.936 173.988 374.864 161.701 374.877 150.693C374.877 150.693 367.064 113.365 378.308 101.066C378.308 101.066 395.461 74.2064 432.051 100.373C432.051 100.373 447.357 118.044 440.264 143.678C440.264 143.678 440.515 145.334 441.605 147.848L445.739 159.21C445.739 159.21 447.029 162.117 443.327 162.822L434.099 163.385C434.099 163.385 428.631 177.485 426.04 182.676C426.04 182.676 420.888 197.009 412.932 190.181L395.716 176.297C395.716 176.297 393.588 172.533 389.807 177.341C386.025 182.15 389.223 178.136 389.223 178.136L367.851 208.206L359.696 180.666L355.16 176.842L360.936 173.988Z" fill="#E6978A"/>
                </g>
                <g id="g752">
                    <path id="path754" d="M381.66 152.741C381.66 152.741 376.083 153.746 372.51 152.055C372.51 152.055 355.196 114.709 377.47 95.3646C377.47 95.3646 381.723 74.0539 415.226 83.3459C415.226 83.3459 432.152 89.1672 439.072 82.2392C439.072 82.2392 439.2 88.1299 437.163 89.3526C437.163 89.3526 449.824 88.7859 453.236 83.1099C453.236 83.1099 448.199 95.3019 445.567 96.2432C445.567 96.2432 452.832 91.6659 462.394 97.6486C462.394 97.6486 456.222 98.3726 452.18 102.29C452.18 102.29 462.804 102.943 467.754 100.185C467.754 100.185 461.932 117.109 444.382 109.533C444.382 109.533 414.643 110.766 405.895 101.525C405.895 101.525 403.179 125.751 392.215 136.599C392.215 136.599 389.842 122.357 383.687 123.817C383.687 123.817 370.527 128.522 381.66 152.741Z" fill="#47393F"/>
                </g>
                <g id="g756">
                    <path id="path758" d="M417.539 135.459C417.539 135.459 423.059 145.361 432.709 141.909L435.991 145.558L432.404 143.314C432.404 143.314 419.652 146.023 417.539 135.459Z" fill="#47393F"/>
                </g>
                <g id="g760">
                    <path id="path762" d="M418.894 126.811C418.894 126.811 429.821 121.048 437.674 126.403C437.674 126.403 440.281 124.356 439.129 122.172C439.129 122.172 427.538 117.78 418.894 126.811Z" fill="#47393F"/>
                </g>
                <g id="g764">
                    <path id="path766" d="M434.504 133.102C434.504 133.102 431.874 138.869 432.709 141.909L430.746 143.351C430.746 143.351 431.801 135.925 434.504 133.102Z" fill="#47393F"/>
                </g>
                <g id="g768">
                    <path id="path770" d="M413.126 163.259C413.126 163.259 422.618 184.793 427.799 173.843L428.926 171.461C428.926 171.461 420.998 172.813 413.126 163.259Z" fill="#47393F"/>
                </g>
                <g id="g772">
                    <g id="g786">
                        <g id="Clip path group">
                            <mask id="mask0_28_1347" style="mask-type:luminance" maskUnits="userSpaceOnUse" x="409" y="144" width="18" height="17">
                                <g id="clipPath778">
                                    <path id="path776" d="M409.262 144.008H426.104V160.941H409.262V144.008Z" fill="white"/>
                                </g>
                            </mask>
                            <g mask="url(#mask0_28_1347)">
                                <g id="g784" opacity="0.300003">
                                    <g id="g782">
                                        <path id="path780" d="M411.559 157.96C408.367 154.395 408.519 149.047 411.9 146.02C415.282 142.991 420.611 143.427 423.808 146.991C427 150.559 426.846 155.904 423.463 158.932C420.084 161.96 414.751 161.524 411.559 157.96Z" fill="#FF6666"/>
                                    </g>
                                </g>
                            </g>
                        </g>
                    </g>
                </g>
                <g id="g788">
                    <g id="g802">
                        <g id="Clip path group_2">
                            <mask id="mask1_28_1347" style="mask-type:luminance" maskUnits="userSpaceOnUse" x="380" y="128" width="9" height="20">
                                <g id="clipPath794">
                                    <path id="path792" d="M380.508 128.488H388.015V147.368H380.508V128.488Z" fill="white"/>
                                </g>
                            </mask>
                            <g mask="url(#mask1_28_1347)">
                                <g id="g800" opacity="0.5">
                                    <g id="g798">
                                        <path id="path796" d="M388.015 133.154C388.015 133.154 386.664 125.226 382.201 130.038C382.201 130.038 376.955 139.582 384.933 147.367C384.933 147.367 380.795 139.942 382.94 136.947C382.94 136.947 383.532 130.303 385.367 133.358C385.367 133.358 386.731 135.098 388.015 133.154Z" fill="#FF6666"/>
                                    </g>
                                </g>
                            </g>
                        </g>
                    </g>
                </g>
                <g id="g804">
                    <g id="g818">
                        <g id="Clip path group_3">
                            <mask id="mask2_28_1347" style="mask-type:luminance" maskUnits="userSpaceOnUse" x="381" y="162" width="39" height="31">
                                <g id="clipPath810">
                                    <path id="path808" d="M381.803 162.261H419.635V192.021H381.803V162.261Z" fill="white"/>
                                </g>
                            </mask>
                            <g mask="url(#mask2_28_1347)">
                                <g id="g816" opacity="0.5">
                                    <g id="g814">
                                        <path id="path812" d="M419.626 191.115C401.934 183.835 391.003 162.264 391.003 162.264C390.033 165.085 390.599 170.819 390.599 170.819C390.674 174.273 384.506 184.337 381.803 188.573L389.222 178.136C389.222 178.136 386.026 182.149 389.807 177.341C393.589 172.532 395.717 176.297 395.717 176.297L412.931 190.18C415.481 192.367 417.738 192.379 419.635 191.391C419.631 191.224 419.626 191.115 419.626 191.115Z" fill="#FF6666"/>
                                    </g>
                                </g>
                            </g>
                        </g>
                    </g>
                </g>
                <g id="g820">
                    <g id="g834">
                        <g id="Clip path group_4">
                            <mask id="mask3_28_1347" style="mask-type:luminance" maskUnits="userSpaceOnUse" x="392" y="97" width="10" height="34">
                                <g id="clipPath826">
                                    <path id="path824" d="M392.838 97.0746H401.734V130.195H392.838V97.0746Z" fill="white"/>
                                </g>
                            </mask>
                            <g mask="url(#mask3_28_1347)">
                                <g id="g832" opacity="0.5">
                                    <g id="g830">
                                        <path id="path828" d="M393.612 129.972C398.552 119.888 403.78 108.834 400.92 97.3683C400.799 96.8737 399.995 97.0603 400.059 97.5563C401.599 109.276 397.644 119.147 392.878 129.624C392.662 130.102 393.383 130.443 393.612 129.972Z" fill="#FF6666"/>
                                    </g>
                                </g>
                            </g>
                        </g>
                    </g>
                </g>
                <g id="g836">
                    <g id="g850">
                        <g id="Clip path group_5">
                            <mask id="mask4_28_1347" style="mask-type:luminance" maskUnits="userSpaceOnUse" x="389" y="92" width="9" height="33">
                                <g id="clipPath842">
                                    <path id="path840" d="M389.624 92.7813H397.018V124.195H389.624V92.7813Z" fill="white"/>
                                </g>
                            </mask>
                            <g mask="url(#mask4_28_1347)">
                                <g id="g848" opacity="0.5">
                                    <g id="g846">
                                        <path id="path844" d="M395.264 92.9579C398.201 103.207 393.704 113.738 389.701 123.018C389.277 124.003 390.727 124.693 391.207 123.731C395.903 114.297 399.016 103.15 395.519 92.8673C395.464 92.7006 395.217 92.7913 395.264 92.9579Z" fill="#FF6666"/>
                                    </g>
                                </g>
                            </g>
                        </g>
                    </g>
                </g>
                <g id="g852">
                    <g id="g866">
                        <g id="Clip path group_6">
                            <mask id="mask5_28_1347" style="mask-type:luminance" maskUnits="userSpaceOnUse" x="386" y="89" width="7" height="32">
                                <g id="clipPath858">
                                    <path id="path856" d="M386.534 89.3279H392.662V120.235H386.534V89.3279Z" fill="white"/>
                                </g>
                            </mask>
                            <g mask="url(#mask5_28_1347)">
                                <g id="g864" opacity="0.5">
                                    <g id="g862">
                                        <path id="path860" d="M388.07 89.6512C391.471 95.0299 392.003 100.377 390.739 106.514C389.822 110.966 387.174 115.062 386.539 119.514C386.462 120.055 387.225 120.525 387.585 120.007C393.305 111.793 394.997 97.4472 388.422 89.4099C388.249 89.2006 387.922 89.4166 388.07 89.6512Z" fill="#FF6666"/>
                                    </g>
                                </g>
                            </g>
                        </g>
                    </g>
                </g>
                <g id="g868">
                    <g id="g882">
                        <g id="Clip path group_7">
                            <mask id="mask6_28_1347" style="mask-type:luminance" maskUnits="userSpaceOnUse" x="380" y="95" width="7" height="22">
                                <g id="clipPath874">
                                    <path id="path872" d="M380.583 95.1279H386.922V116.955H380.583V95.1279Z" fill="white"/>
                                </g>
                            </mask>
                            <g mask="url(#mask6_28_1347)">
                                <g id="g880" opacity="0.5">
                                    <g id="g878">
                                        <path id="path876" d="M380.718 95.9201C385.986 101.324 386.045 109.083 383.65 115.781C383.294 116.779 384.652 117.463 385.156 116.495C388.63 109.8 386.788 100.293 381.3 95.2454C380.87 94.8507 380.325 95.5147 380.718 95.9201Z" fill="#FF6666"/>
                                    </g>
                                </g>
                            </g>
                        </g>
                    </g>
                </g>
                <g id="g884">
                    <g id="g898">
                        <g id="Clip path group_8">
                            <mask id="mask7_28_1347" style="mask-type:luminance" maskUnits="userSpaceOnUse" x="381" y="102" width="1" height="2">
                                <g id="clipPath890">
                                    <path id="path888" d="M381.088 102.861H381.25V103.035H381.088V102.861Z" fill="white"/>
                                </g>
                            </mask>
                            <g mask="url(#mask7_28_1347)">
                                <g id="g896" opacity="0.5">
                                    <g id="g894">
                                        <path id="path892" d="M381.134 103.022C381.229 103.067 381.301 102.918 381.204 102.872C381.108 102.827 381.037 102.976 381.134 103.022Z" fill="#FF6666"/>
                                    </g>
                                </g>
                            </g>
                        </g>
                    </g>
                </g>
                <g id="g900">
                    <g id="g914">
                        <g id="Clip path group_9">
                            <mask id="mask8_28_1347" style="mask-type:luminance" maskUnits="userSpaceOnUse" x="379" y="101" width="3" height="23">
                                <g id="clipPath906">
                                    <path id="path904" d="M379.103 101.235H381.547V123.435H379.103V101.235Z" fill="white"/>
                                </g>
                            </mask>
                            <g mask="url(#mask8_28_1347)">
                                <g id="g912" opacity="0.5">
                                    <g id="g910">
                                        <path id="path908" d="M379.394 101.53C380.206 108.738 379.716 115.412 379.106 122.595C379.028 123.527 380.361 123.791 380.554 122.848C381.981 115.974 381.954 108.142 379.92 101.415C379.829 101.119 379.36 101.224 379.394 101.53Z" fill="#FF6666"/>
                                    </g>
                                </g>
                            </g>
                        </g>
                    </g>
                </g>
                <g id="g916">
                    <g id="g930">
                        <g id="Clip path group_10">
                            <mask id="mask9_28_1347" style="mask-type:luminance" maskUnits="userSpaceOnUse" x="372" y="102" width="6" height="45">
                                <g id="clipPath922">
                                    <path id="path920" d="M372.946 102.634H377.901V146.301H372.946V102.634Z" fill="white"/>
                                </g>
                            </mask>
                            <g mask="url(#mask9_28_1347)">
                                <g id="g928" opacity="0.5">
                                    <g id="g926">
                                        <path id="path924" d="M376.022 102.737C371.54 117.395 372.238 131.045 376.3 145.754C376.585 146.789 378.152 146.222 377.866 145.194C374.066 131.526 372.385 116.643 376.29 102.785C376.337 102.615 376.073 102.573 376.022 102.737Z" fill="#FF6666"/>
                                    </g>
                                </g>
                            </g>
                        </g>
                    </g>
                </g>
                <g id="g932">
                    <g id="g946">
                        <g id="Clip path group_11">
                            <mask id="mask10_28_1347" style="mask-type:luminance" maskUnits="userSpaceOnUse" x="368" y="101" width="8" height="29">
                                <g id="clipPath938">
                                    <path id="path936" d="M368.186 101.168H375.703V129.435H368.186V101.168Z" fill="white"/>
                                </g>
                            </mask>
                            <g mask="url(#mask10_28_1347)">
                                <g id="g944" opacity="0.5">
                                    <g id="g942">
                                        <path id="path940" d="M369.06 129.125C369.19 118.93 370.588 110.729 375.648 101.791C375.898 101.349 375.224 100.933 374.909 101.311C368.529 108.926 367.566 119.651 368.481 129.177C368.518 129.555 369.056 129.493 369.06 129.125Z" fill="#FF6666"/>
                                    </g>
                                </g>
                            </g>
                        </g>
                    </g>
                </g>
                <g id="g948">
                    <g id="g962">
                        <g id="Clip path group_12">
                            <mask id="mask11_28_1347" style="mask-type:luminance" maskUnits="userSpaceOnUse" x="382" y="81" width="15" height="11">
                                <g id="clipPath954">
                                    <path id="path952" d="M382.232 81.8612H396.481V91.0212H382.232V81.8612Z" fill="white"/>
                                </g>
                            </mask>
                            <g mask="url(#mask11_28_1347)">
                                <g id="g960" opacity="0.5">
                                    <g id="g958">
                                        <path id="path956" d="M383.021 90.8387C384.803 88.3107 387.155 86.5574 389.901 85.1787C391.958 84.1467 394.282 83.7467 396.287 82.6401C396.691 82.4174 396.397 81.8574 396.007 81.8654C390.899 81.9787 385.047 86.0987 382.317 90.2321C381.994 90.7214 382.673 91.3347 383.021 90.8387Z" fill="#FF6666"/>
                                    </g>
                                </g>
                            </g>
                        </g>
                    </g>
                </g>
                <g id="g964">
                    <path id="path966" d="M385.254 250.853C385.254 250.853 405.786 282.448 411.282 285.433C416.774 288.418 491.392 316.77 491.392 316.77V304.461C491.392 304.461 445.503 275.732 426.475 270.506C426.475 270.506 416.422 243.014 406.738 233.769L385.254 250.853Z" fill="#D6877C"/>
                </g>
                <g id="g968">
                    <path id="path970" d="M397.134 245.074C401.625 241.273 406.126 237.477 410.718 233.808L381.977 190.088C376.582 181.88 365.558 179.602 357.353 184.994C349.149 190.39 346.869 201.413 352.262 209.621L382.732 255.974C387.658 252.501 392.533 248.972 397.134 245.074Z" fill="#AD232D"/>
                </g>
                <g id="g972">
                    <path id="path974" d="M488.221 318.29C488.221 318.29 505.382 332.141 511.819 327.805C518.254 323.466 523.43 311.153 517.695 304.999C511.957 298.843 488.221 305.467 488.221 305.467V318.29Z" fill="#D6877C"/>
                </g>
                <g id="g976">
                    <path id="path978" d="M366.966 170.521C366.966 170.521 326.114 170.521 281.904 230.401C237.692 290.282 233.214 315.464 233.214 315.464L308.766 328.897C308.766 328.897 329.47 288.044 341.224 272.934C352.977 257.822 394.95 229.841 384.876 196.822C384.876 196.822 378.906 172.758 366.966 170.521Z" fill="#C1272D"/>
                </g>
                <g id="g980">
                    <path id="path982" d="M389.303 250.299C393.795 246.498 398.295 242.702 402.887 239.031L374.147 195.311C368.752 187.106 357.728 184.827 349.523 190.22C341.318 195.615 339.039 206.638 344.432 214.843L374.903 261.196C379.827 257.727 384.702 254.195 389.303 250.299Z" fill="#C1272D"/>
                </g>
                <g id="g984">
                    <path id="path986" d="M376.858 260.319C376.858 260.319 397.393 291.911 402.888 294.9C408.378 297.883 482.997 326.238 482.997 326.238V313.415C482.997 313.415 437.11 285.196 418.081 279.972C418.081 279.972 408.028 252.48 398.341 243.235L376.858 260.319Z" fill="#E6978A"/>
                </g>
                <g id="g988">
                    <path id="path990" d="M482.997 326.238C482.997 326.238 500.158 340.09 506.596 335.751C513.033 331.415 518.209 319.103 512.472 312.947C506.738 306.791 482.997 313.415 482.997 313.415V326.238Z" fill="#E6978A"/>
                </g>
            </g>
        </g>
    </g>
</svg>