<svg id="visual" viewBox="0 0 900 600" width="900" height="600" xmlns="http://www.w3.org/2000/svg" xmlns:xlink="http://www.w3.org/1999/xlink" version="1.1"><rect x="0" y="0" width="900" height="600" fill="#002233"></rect><path d="M0 463L21.5 472.7C43 482.3 86 501.7 128.8 501C171.7 500.3 214.3 479.7 257.2 470.8C300 462 343 465 385.8 469.2C428.7 473.3 471.3 478.7 514.2 463.7C557 448.7 600 413.3 642.8 415.2C685.7 417 728.3 456 771.2 472.2C814 488.3 857 481.7 878.5 478.3L900 475L900 601L878.5 601C857 601 814 601 771.2 601C728.3 601 685.7 601 642.8 601C600 601 557 601 514.2 601C471.3 601 428.7 601 385.8 601C343 601 300 601 257.2 601C214.3 601 171.7 601 128.8 601C86 601 43 601 21.5 601L0 601Z" fill="#0066FF" stroke-linecap="round" stroke-linejoin="miter"></path></svg>